ply
format ascii 1.0
comment VCGLIB generated
comment Quick clay model - Valsson 2013
comment x(Bq) y(Fr) z(Qt)
element vertex 49
property float x
property float y
property float z
element face 94
property list uchar int vertex_indices
end_header
0.8747 0.9403 3.2436
1.2015 1.9492 1.6514
1.2723 2.4068 1.8426
1.1491 1.6813 1.8904
1.2131 2.3365 1.6475
0.2313 1.9429 4.7282
0.5061 1.3650 3.6425
0.0410 2.7182 5.6576
0.0815 2.0928 6.9712
0.8970 1.5837 2.0629
0.9234 0.9466 3.0538
0.8024 1.6311 2.1831
1.0541 1.8973 1.7104
0.9458 1.6978 1.9092
1.1487 2.0123 1.6014
0.3965 2.5765 2.9085
0.8131 4.2541 2.2023
0.3402 4.3493 3.6240
0.0381 2.6575 5.2910
0.4992 4.7736 2.8428
0.4352 1.2574 6.0104
1.2823 3.6842 2.4601
1.1739 3.1750 3.3242
1.0162 5.2456 2.0355
0.7440 5.2584 2.4109
1.1607 2.8462 1.6622
0.9504 1.0975 3.2080
0.9320 0.9919 3.1060
1.3049 2.8447 2.5831
0.8279 1.5385 4.7026
0.8394 0.9274 3.4384
0.4125 1.8741 7.6214
0.3772 1.8448 7.7234
0.4188 1.8081 7.4837
0.6290 2.1567 6.6540
0.5785 2.8875 6.4222
0.3046 4.8657 4.0360
0.6727 2.4375 6.6334
1.2642 4.0262 2.1458
1.2561 2.2850 1.6788
1.3161 3.4800 2.2400
1.1952 5.3869 2.2295
0.1765 2.2420 7.1761
0.5446 2.7085 6.7693
0.4300 2.1061 7.7687
0.2185 3.3178 5.6324
0.1644 1.8317 7.8114
0.0897 2.4080 6.6873
0.0556 3.0246 5.7146
3 15 6 18 
3 15 6 11 
3 48 36 18 
3 0 10 30 
3 0 10 11 
3 0 6 30 
3 0 6 11 
3 13 10 14 
3 13 15 11 
3 27 10 30 
3 27 10 28 
3 16 25 14 
3 16 23 24 
3 16 25 23 
3 19 36 24 
3 19 16 24 
3 19 16 15 
3 19 15 18 
3 1 39 14 
3 1 39 3 
3 1 10 14 
3 1 10 3 
3 2 39 3 
3 2 10 3 
3 2 10 28 
3 2 28 40 
3 2 39 40 
3 20 6 30 
3 20 8 46 
3 20 8 6 
3 44 34 37 
3 21 28 40 
3 21 22 28 
3 4 39 14 
3 4 25 14 
3 4 25 39 
3 5 6 18 
3 5 8 18 
3 5 8 6 
3 7 48 18 
3 7 8 18 
3 7 8 48 
3 47 8 46 
3 47 8 48 
3 9 10 11 
3 9 13 11 
3 9 13 10 
3 12 13 14 
3 12 13 15 
3 12 16 14 
3 12 16 15 
3 29 22 28 
3 29 22 37 
3 29 34 37 
3 29 34 33 
3 29 20 30 
3 29 20 33 
3 17 36 18 
3 17 19 18 
3 17 19 36 
3 32 44 46 
3 32 20 46 
3 32 20 33 
3 43 44 37 
3 41 21 22 
3 41 22 37 
3 41 23 24 
3 41 21 40 
3 41 36 24 
3 41 25 23 
3 41 25 39 
3 26 27 28 
3 26 29 28 
3 26 27 30 
3 26 29 30 
3 31 32 33 
3 31 32 44 
3 31 34 33 
3 31 44 34 
3 45 48 36 
3 35 41 36 
3 35 45 36 
3 35 45 43 
3 35 43 37 
3 35 41 37 
3 38 39 40 
3 38 41 40 
3 38 41 39 
3 42 43 44 
3 42 45 43 
3 42 44 46 
3 42 47 46 
3 42 47 48 
3 42 45 48 
