ply
format ascii 1.0
comment VCGLIB generated
comment Quick clay model - Valsson 2015
comment x(Bq) y(f_sn) z(q_tn)
element vertex 36
property float x
property float y
property float z
element face 68
property list uchar int vertex_indices
end_header
1.1598 0.0286 4.1096
1.2015 0.0322 3.59
1.2131 0.0385 3.5867
1.2561 0.0384 3.6191
0.8853 0.1581 6.685
0.2696 0.0363 10.1695
0.5446 0.1834 8.4703
0.6468 0.1898 8.2376
0.041 0.1538 7.1121
-0.0159 0.1153 11.4235
-0.0183 0.0983 11.4499
-0.0159 0.1155 11.4393
0.0381 0.1406 6.7484
0.3798 0.1769 5.5348
0.6754 0.1868 7.231
0.2139 0.2137 7.3418
0.3442 0.1168 4.0077
1.0162 0.1068 3.754
1.1952 0.1201 4.1314
0.5736 0.1114 3.7897
1.1607 0.0473 3.5892
0.8829 0.0892 7.0795
0.1843 0.0537 11.7247
1.6032 0.0823 4.0318
0.6727 0.1617 8.445
-0.0183 0.0984 11.463
-0.0144 0.0332 8.9351
-0.0143 0.0333 8.9454
-0.0171 0.0988 12.0893
0.8012 0.0131 3.4706
0.3099 0.0311 9.2215
0.8992 0.0131 3.5481
-0.0145 0.0332 8.9228
-0.0155 0.0331 8.4898
0.521 0.0461 3.2787
1.1487 0.0322 3.5392
3 0 31 23 
3 23 5 0 
3 1 23 31 
3 1 31 35 
3 15 7 14 
3 22 5 23 
3 16 19 34 
3 16 34 33 
3 16 33 12 
3 30 31 0 
3 30 0 5 
3 10 33 25 
3 1 3 23 
3 3 1 35 
3 2 35 34 
3 20 2 34 
3 2 3 35 
3 2 20 23 
3 3 2 23 
3 11 28 7 
3 28 11 25 
3 11 10 25 
3 4 7 23 
3 4 14 7 
3 18 4 23 
3 18 14 4 
3 7 28 24 
3 24 28 22 
3 24 23 7 
3 27 22 28 
3 5 22 27 
3 27 30 5 
3 6 7 15 
3 11 6 15 
3 6 11 7 
3 8 11 15 
3 11 8 12 
3 8 15 16 
3 8 16 12 
3 33 10 9 
3 11 9 10 
3 12 33 9 
3 9 11 12 
3 15 14 13 
3 18 13 14 
3 13 16 15 
3 13 18 19 
3 19 16 13 
3 17 18 23 
3 19 18 17 
3 34 19 17 
3 17 23 20 
3 17 20 34 
3 21 22 23 
3 21 23 24 
3 21 24 22 
3 33 32 25 
3 32 28 25 
3 26 27 28 
3 28 32 26 
3 26 30 27 
3 26 32 30 
3 30 29 31 
3 29 30 32 
3 29 32 33 
3 29 33 34 
3 29 35 31 
3 34 35 29 
