ply
format ascii 1.0
comment VCGLIB generated
comment Quick clay model - Valsson 2017
comment x(Bq) y(f_sn) z(q_tn)
element vertex 230
property float x
property float y
property float z
element face 354
property list uchar int vertex_indices
end_header
0.7414 0.2341 10.9699
0.7703 0.1146 8.0138
0.7056 0.1984 5.2295
0.6918 0.4132 9.2575
0.7012 0.3986 10.3338
0.7070 0.3738 10.5643
0.7217 0.3159 11.1044
0.5220 0.1413 4.0972
0.5806 0.2621 5.1751
0.7153 0.1104 4.4901
0.5121 0.1290 3.9644
0.7641 0.1129 10.6358
0.7397 0.0701 10.4898
0.3150 0.0278 4.2376
0.4233 0.0218 5.3882
0.3996 0.0217 5.3845
0.3067 0.0275 4.2715
0.6206 0.0396 4.6622
0.6209 0.0230 9.9122
0.5859 0.0204 9.9816
0.5613 0.0325 4.6909
0.4984 0.0165 10.2940
0.2852 0.0285 4.4319
0.3702 0.0224 6.0815
0.2384 0.0300 5.8177
0.2349 0.0305 5.5713
0.2635 0.0296 4.6155
0.3038 0.0277 4.2808
0.4481 0.0177 9.9459
0.3204 0.0242 7.5381
0.2450 0.0293 6.2825
0.6902 0.3134 6.8555
0.6860 0.4189 8.7356
0.6152 0.3451 6.4000
0.6193 0.3496 6.5006
0.5842 0.0373 4.5462
0.3828 0.0343 3.9289
0.3941 0.0367 3.8706
0.6588 0.1094 4.3183
0.5106 0.1281 3.9582
0.4052 0.0552 3.7285
0.4075 0.0584 3.7255
0.7199 0.1109 4.5145
0.6932 0.0747 5.1096
0.7216 0.0828 6.3408
0.6895 0.0427 10.3883
0.6908 0.0432 10.3978
0.6098 0.0397 4.5945
0.3958 0.0377 3.8567
0.4024 0.0530 3.7371
0.4900 0.1107 3.8980
0.4880 0.1098 3.8935
0.4898 0.1113 3.8980
0.5062 0.1261 3.9464
0.4089 0.0613 3.7272
0.4699 0.0162 10.4813
0.5564 0.0038 7.8176
0.1353 0.0156 5.5736
0.7793 0.6231 11.2519
0.2804 0.0183 7.2789
0.4729 0.0167 10.4884
1.4406 0.0590 5.0420
0.7364 0.0530 10.3807
0.4763 0.0166 10.4789
0.4849 0.0164 10.3888
0.6486 0.0938 2.9676
1.2529 0.1768 4.8800
0.5761 0.3012 5.5632
0.6215 0.0940 3.0096
0.4749 0.0853 3.3824
0.5750 0.2973 5.5349
0.5753 0.2997 5.5632
1.2114 0.0039 3.5806
0.7945 0.2595 10.9233
0.7510 0.1789 10.8630
0.7625 0.1297 10.6983
0.7646 0.1148 10.6415
0.9592 0.3055 6.5245
0.2601 0.0208 4.5460
1.3921 0.0162 2.3407
1.0112 0.0038 3.9327
1.1916 0.2474 7.8118
0.7843 0.0208 2.8886
1.2187 0.0166 2.3580
1.0228 0.0038 3.9336
1.0536 0.0038 3.8496
0.8054 0.0148 2.8867
0.3790 0.0338 3.9466
1.0637 0.0038 3.8152
1.2208 0.0171 2.3676
1.2037 0.0039 3.5818
1.2063 0.0039 3.5829
0.4738 0.0167 10.4865
0.6186 0.1249 4.2891
0.3573 0.0246 4.7767
0.6032 0.0285 6.8217
0.5299 0.0231 6.9490
0.6910 0.3598 7.9665
0.6527 0.3288 6.6238
0.4835 0.0358 4.2263
0.5854 0.1188 4.1376
0.5320 0.0777 4.0126
0.6713 0.0437 7.9279
0.5019 0.0382 4.2171
0.2399 0.0299 5.9162
0.4541 0.0189 7.4817
0.7520 0.1743 10.8333
0.2627 0.0231 6.7624
0.4011 0.0271 4.6114
0.7235 0.2155 7.5741
0.7034 0.2812 7.3512
0.7115 0.3549 10.7121
0.7137 0.2504 7.6204
0.6431 0.2281 5.2022
0.7550 0.0896 9.1686
0.2510 0.0298 5.1818
0.3424 0.0249 4.8851
0.2959 0.0280 4.3510
0.3432 0.0230 7.6067
0.3466 0.0228 7.9047
0.5728 0.0348 4.6180
0.6569 0.0544 4.8807
0.7128 0.1484 4.8589
0.7176 0.1107 4.5023
0.7074 0.0786 5.6920
0.7299 0.0700 9.1241
0.7305 0.0704 9.1283
0.7460 0.0974 7.1284
0.7208 0.0958 5.3503
0.5970 0.0385 4.5703
0.6703 0.0663 4.5877
0.6649 0.0663 4.5543
0.5075 0.0468 4.1389
0.5061 0.0458 4.1437
0.4899 0.1110 3.8980
0.5743 0.1103 4.1028
0.5002 0.1194 3.9280
0.5734 0.1096 4.1004
0.5338 0.0819 4.0119
0.3026 0.0159 7.6432
0.7403 0.4984 10.7831
0.2078 0.0169 6.3695
0.3766 0.0175 8.7375
1.0885 0.0559 7.2346
0.6236 0.0128 9.0159
0.5164 0.0080 9.0510
0.5207 0.0079 9.0120
0.6230 0.0127 9.0117
0.5886 0.0094 8.8028
0.5274 0.0079 8.9708
0.5711 0.0088 8.8336
0.6123 0.1681 4.0631
0.5639 0.1088 3.4463
0.5783 0.2810 5.3656
0.6011 0.1569 3.9465
0.5661 0.1097 3.4515
0.5668 0.1101 3.4542
0.5717 0.1152 3.5116
0.6773 0.4321 7.9118
0.7355 0.5074 10.2061
0.6972 0.4637 8.4860
0.1851 0.0218 5.5724
1.3260 0.0152 4.2489
0.7603 0.3820 11.1100
0.7380 0.0609 10.4351
0.7502 0.0773 10.5075
0.7785 0.1835 10.8102
0.7795 0.1726 10.7814
0.7793 0.1712 10.7786
0.8692 0.4363 8.5681
0.7676 0.3033 6.0247
1.1060 0.2324 5.6426
0.2195 0.0208 4.8846
0.2102 0.0211 4.9701
1.4164 0.0309 3.4354
1.3225 0.0535 3.3797
1.0204 0.0389 2.6356
0.7838 0.0038 5.5448
0.9640 0.1145 9.0051
1.3161 0.1208 6.2759
0.9854 0.3926 9.3754
1.2223 0.2092 6.1742
0.7029 0.0442 2.9485
0.7164 0.0442 2.9278
0.7896 0.0038 5.5454
1.0382 0.0038 3.8914
0.7948 0.0176 2.8877
0.4703 0.0152 4.0112
0.5732 0.0077 4.6818
0.6039 0.0280 3.2845
0.6006 0.0236 3.3366
0.2834 0.0239 4.4066
0.2876 0.0240 4.3891
0.5997 0.0233 3.3426
0.5941 0.0226 3.3677
0.5922 0.0224 3.3753
0.6401 0.0356 3.1248
0.7134 0.0373 2.9475
1.1412 0.0080 2.9994
1.0375 0.0038 3.8735
1.0433 0.0038 3.8739
1.0587 0.0038 3.8323
0.9347 0.0401 2.6506
1.2197 0.0168 2.3628
1.3064 0.0166 2.3541
1.2112 0.0081 2.9062
1.2979 0.0080 2.8955
1.2050 0.0039 3.5824
1.1350 0.0039 3.6972
1.2088 0.0039 3.5817
0.8813 0.0039 5.2924
1.1299 0.0039 3.7139
0.7505 0.4437 11.1779
0.4714 0.0165 10.4849
0.4215 0.0194 7.9865
0.4275 0.0192 7.9485
0.4793 0.0166 10.4375
0.4220 0.0194 7.9858
0.4718 0.0164 10.4839
0.6526 0.3827 7.5357
0.4412 0.0706 3.5498
0.4400 0.0686 3.5513
0.6405 0.2439 5.3938
0.6403 0.2429 5.3801
0.5757 0.3004 5.5632
0.4823 0.0974 3.6311
0.4814 0.0967 3.6290
0.7643 0.1138 10.6386
0.3809 0.0341 3.9377
0.7635 0.1220 10.6698
3 0 1 109 
3 2 3 110 
3 4 5 111 
3 6 0 112 
3 2 4 112 
3 2 7 113 
3 9 10 93 
3 93 7 2 
3 1 11 114 
3 13 14 94 
3 94 15 16 
3 17 18 95 
3 95 19 20 
3 21 14 96 
3 96 20 19 
3 22 23 24 
3 24 25 115 
3 24 26 22 
3 15 23 116 
3 22 27 117 
3 22 16 116 
3 24 23 118 
3 28 29 119 
3 28 30 118 
3 31 32 97 
3 97 3 2 
3 31 2 98 
3 98 33 34 
3 35 17 120 
3 35 20 99 
3 99 36 37 
3 38 39 100 
3 100 10 9 
3 38 9 101 
3 101 40 41 
3 17 42 121 
3 2 1 122 
3 9 2 123 
3 44 45 102 
3 102 18 17 
3 44 17 124 
3 45 44 125 
3 1 12 126 
3 1 46 125 
3 44 42 127 
3 44 43 128 
3 47 17 129 
3 17 47 130 
3 47 9 131 
3 40 9 132 
3 47 48 133 
3 47 49 132 
3 47 35 103 
3 103 37 48 
3 50 51 134 
3 38 50 135 
3 52 53 136 
3 52 39 135 
3 51 50 137 
3 38 41 138 
3 38 54 137 
3 55 56 139 
3 58 5 140 
3 59 55 141 
3 60 55 142 
3 59 29 28 
3 59 28 60 
3 61 56 143 
3 46 62 144 
3 56 55 145 
3 56 63 146 
3 45 46 147 
3 18 45 148 
3 56 64 149 
3 19 18 150 
3 56 21 150 
3 65 66 151 
3 67 68 151 
3 53 69 152 
3 67 70 153 
3 68 67 154 
3 39 53 155 
3 10 39 156 
3 68 8 157 
3 68 7 156 
3 71 67 158 
3 58 4 159 
3 58 3 32 
3 33 71 160 
3 58 32 34 
3 58 34 160 
3 57 26 161 
3 72 56 162 
3 58 73 74 
3 0 6 163 
3 74 0 58 
3 62 46 164 
3 62 12 165 
3 75 74 166 
3 76 75 167 
3 73 62 168 
3 73 11 167 
3 77 66 169 
3 77 58 170 
3 77 67 171 
3 57 78 172 
3 22 26 173 
3 27 22 172 
3 79 72 174 
3 79 61 175 
3 79 66 176 
3 80 57 177 
3 62 73 178 
3 61 62 179 
3 81 73 180 
3 81 66 179 
3 81 58 181 
3 82 65 182 
3 82 83 183 
3 84 80 184 
3 84 56 185 
3 86 83 186 
3 86 78 187 
3 80 86 188 
3 86 69 189 
3 86 49 190 
3 16 27 191 
3 13 16 192 
3 86 48 193 
3 86 37 194 
3 13 78 86 
3 86 36 195 
3 86 87 13 
3 86 68 196 
3 86 82 197 
3 83 86 198 
3 88 86 199 
3 88 80 200 
3 88 84 201 
3 89 79 202 
3 89 65 203 
3 89 83 204 
3 83 88 205 
3 90 72 206 
3 79 83 206 
3 91 72 207 
3 91 90 208 
3 91 56 209 
3 91 85 210 
3 91 88 211 
3 6 5 212 
3 25 24 104 
3 104 30 57 
3 60 92 213 
3 60 28 214 
3 23 15 215 
3 64 63 216 
3 92 60 217 
3 23 64 217 
3 92 63 218 
3 32 31 219 
3 69 54 220 
3 40 49 221 
3 41 40 220 
3 14 21 105 
3 105 64 15 
3 71 33 222 
3 2 8 223 
3 2 70 222 
3 75 1 106 
3 106 0 74 
3 30 29 107 
3 107 59 57 
3 71 70 224 
3 69 53 225 
3 51 54 226 
3 52 51 225 
3 11 1 227 
3 14 13 108 
3 108 87 20 
3 36 20 228 
3 76 1 229 
3 93 10 7 
3 9 93 2 
3 94 14 15 
3 13 94 16 
3 95 18 19 
3 17 95 20 
3 96 14 20 
3 21 96 19 
3 97 32 3 
3 31 97 2 
3 98 2 33 
3 31 98 34 
3 99 20 36 
3 35 99 37 
3 100 39 10 
3 38 100 9 
3 101 9 40 
3 38 101 41 
3 102 45 18 
3 44 102 17 
3 103 35 37 
3 47 103 48 
3 104 24 30 
3 25 104 57 
3 105 21 64 
3 14 105 15 
3 106 1 0 
3 75 106 74 
3 107 29 59 
3 30 107 57 
3 108 13 87 
3 14 108 20 
3 109 1 2 
3 110 3 4 
3 111 5 6 
3 112 0 2 
3 112 4 6 
3 113 7 8 
3 114 11 12 
3 115 25 26 
3 116 23 22 
3 117 27 16 
3 116 16 15 
3 118 23 28 
3 119 29 30 
3 118 30 24 
3 120 17 20 
3 121 42 43 
3 122 1 42 
3 123 2 42 
3 124 17 43 
3 125 44 1 
3 126 12 46 
3 125 46 45 
3 127 42 1 
3 128 43 42 
3 129 17 35 
3 130 47 42 
3 131 9 42 
3 132 9 47 
3 133 48 49 
3 132 49 40 
3 134 51 52 
3 135 50 52 
3 136 53 39 
3 135 39 38 
3 137 50 38 
3 138 41 54 
3 137 54 51 
3 139 56 57 
3 140 5 4 
3 141 55 57 
3 142 55 59 
3 143 56 62 
3 144 62 56 
3 145 55 63 
3 146 63 64 
3 147 46 56 
3 148 45 56 
3 149 64 21 
3 150 18 56 
3 150 21 19 
3 151 66 67 
3 151 68 65 
3 152 69 68 
3 153 70 8 
3 154 67 8 
3 155 53 68 
3 156 39 68 
3 157 8 7 
3 156 7 10 
3 158 67 58 
3 159 4 3 
3 160 71 58 
3 160 34 33 
3 161 26 25 
3 162 56 61 
3 163 6 58 
3 164 46 12 
3 165 12 11 
3 166 74 73 
3 167 75 73 
3 168 62 11 
3 167 11 76 
3 169 66 58 
3 170 58 67 
3 171 67 66 
3 172 78 27 
3 173 26 57 
3 172 22 57 
3 174 72 61 
3 175 61 66 
3 176 66 65 
3 177 57 56 
3 178 73 81 
3 179 62 81 
3 180 73 58 
3 179 66 61 
3 181 58 66 
3 182 65 68 
3 183 83 65 
3 184 80 56 
3 185 56 85 
3 186 83 82 
3 187 78 57 
3 188 86 57 
3 189 69 49 
3 190 49 48 
3 191 27 78 
3 192 16 78 
3 193 48 37 
3 194 37 36 
3 195 36 87 
3 196 68 69 
3 197 82 68 
3 198 86 88 
3 199 86 80 
3 200 80 84 
3 201 84 85 
3 202 79 65 
3 203 65 83 
3 204 83 79 
3 205 88 90 
3 206 72 79 
3 206 83 90 
3 207 72 90 
3 208 90 88 
3 209 56 72 
3 210 85 56 
3 211 88 85 
3 212 5 58 
3 213 92 55 
3 214 28 23 
3 215 15 64 
3 216 63 92 
3 217 60 23 
3 217 64 92 
3 218 63 55 
3 219 31 34 
3 220 54 41 
3 221 49 69 
3 220 40 69 
3 222 33 2 
3 223 8 70 
3 222 70 71 
3 224 70 67 
3 225 53 52 
3 226 54 69 
3 225 51 69 
3 227 1 76 
3 228 20 87 
3 229 1 75 
